# xmcd
#
# Track frame offsets:
#	150
#	10834
#	22199
#	32779
#	46884
#	56290
#	66213
#	81142
#	89832
#	100645
#	111571
#	123956
#	133716
#	148606
#	164078
#	184531
#	201936
#	216117
#	229285
#	245115
#	259036
#	272954
#
# Disc length: 3909 seconds
#
# Revision: 0
# Processed by: cddbd v1.5.2PL0 Copyright (c) Steve Scherf et al.
# Submitted via: audiograbber 1.83.01
#
DISCID=4b0f4316
DTITLE=Varios - Pingströrelsens brassband
DYEAR=2002
DGENRE=Instrumental
TTITLE0=Pingstkyrkans blåsork. Tibro - Pärleporten
TTITLE1=Pingstkyrkans blåsork. Tibro - Herren ärmin herde
TTITLE2=Pingstkyrkans blåsork. Tibro - Basin street blues
TTITLE3=Pingstkyrkans blåsork. Tibro - Ovan där
TTITLE4=Pingstkyrkans blåsork. Tibro - De komma från ost och väst
TTITLE5=Pingstkyrkans blåsork. Tibro - Sköna mäniskor
TTITLE6=Pingstkyrkans blåsork. Tibro - Amazing Grace
TTITLE7=Pingstkyrkans Blåsork. Tibro - Sjung halleluja
TTITLE8=Pingstkyrkans blåsork. Tibro - Var jag går i skogar
TTITLE9=Pingstkyrkans blåsork. Tibro - Old beauty Daisy
TTITLE10=Pingstkyrkans blåsork. Tibro - Go tell it on the mountain
TTITLE11=Pingstkyrkans blåsork. Tibro - O store Gud
TTITLE12=Pingstkyrkans blåsork Tibro - Just a closer walk
TTITLE13=Pingstkyrkans blåsork. Tibro - Min gud tillhör äran
TTITLE14=Avesta gospel brass - Petone Citadell
TTITLE15=Avesta gospel brass - Lord with my all i part
TTITLE16=Avesta gospel brass - Moses get down
TTITLE17=Avesta gospel brass - No one ever cared
TTITLE18=Avesta gospel brass - Penlan
TTITLE19=Avesta gospel brass - Brass 91
TTITLE20=Avesta gospel brass - Come home
TTITLE21=Avesta gospel brass - Torch of fredom
EXTD=
EXTT0=
EXTT1=
EXTT2=
EXTT3=
EXTT4=
EXTT5=
EXTT6=
EXTT7=
EXTT8=
EXTT9=
EXTT10=
EXTT11=
EXTT12=
EXTT13=
EXTT14=
EXTT15=
EXTT16=
EXTT17=
EXTT18=
EXTT19=
EXTT20=
EXTT21=
PLAYORDER=
